<svg width="100" height="100" viewBox="0 0 100 100" fill="none" xmlns="http://www.w3.org/2000/svg">
<g clip-path="url(#clip0_1_163)">
<path d="M80.502 80.2774H19.498C18.0402 80.2755 16.6428 79.6955 15.6121 78.6647C14.5814 77.6339 14.0017 76.2363 14 74.7786V43.2307C14.0017 41.773 14.5814 40.3754 15.6121 39.3446C16.6428 38.3138 18.0402 37.7338 19.498 37.7319H80.502C81.9598 37.7338 83.3572 38.3138 84.3879 39.3446C85.4186 40.3754 85.9983 41.773 86 43.2307V74.7786C85.9983 76.2363 85.4186 77.6339 84.3879 78.6647C83.3572 79.6955 81.9598 80.2755 80.502 80.2774ZM19.498 41.0047C18.9079 41.0054 18.3422 41.2402 17.925 41.6575C17.5079 42.0748 17.2733 42.6406 17.2727 43.2307V74.7786C17.2733 75.3687 17.5079 75.9344 17.925 76.3518C18.3422 76.7691 18.9079 77.0039 19.498 77.0046H80.502C81.0921 77.0039 81.6578 76.7691 82.075 76.3518C82.4921 75.9344 82.7267 75.3687 82.7273 74.7786V43.2307C82.7267 42.6406 82.4921 42.0748 82.075 41.6575C81.6578 41.2402 81.0921 41.0054 80.502 41.0047H19.498Z" fill="#FF445F"/>
<path d="M37.1049 34.4604C36.8054 34.4601 36.5117 34.3777 36.2558 34.222C36 34.0663 35.7917 33.8434 35.6538 33.5776C35.5159 33.3118 35.4535 33.0132 35.4735 32.7143C35.4935 32.4155 35.5952 32.1279 35.7673 31.8828C35.9847 31.5744 36.2164 31.2836 36.4481 30.9943C36.8535 30.5917 37.1753 30.1129 37.395 29.5855C37.6147 29.0581 37.7279 28.4924 37.7281 27.921C37.7283 27.3497 37.6155 26.7839 37.3963 26.2563C37.177 25.7287 36.8556 25.2497 36.4505 24.8467C35.1678 23.4537 34.4556 21.6294 34.4553 19.7358C34.455 17.8422 35.1666 16.0177 36.4488 14.6243C36.9527 14.0834 37.3371 13.4426 37.577 12.7434C37.634 12.5351 37.7317 12.3401 37.8644 12.1697C37.9971 11.9992 38.1622 11.8568 38.3503 11.7505C38.5383 11.6442 38.7455 11.5762 38.96 11.5504C39.1744 11.5246 39.3918 11.5415 39.5997 11.6002C39.8076 11.6588 40.0018 11.758 40.1712 11.8921C40.3405 12.0262 40.4816 12.1924 40.5864 12.3813C40.6912 12.5702 40.7575 12.778 40.7816 12.9926C40.8057 13.2073 40.787 13.4246 40.7267 13.632C40.3768 14.755 39.7899 15.7899 39.0057 16.6666C38.5992 17.0669 38.2767 17.5443 38.0574 18.0709C37.838 18.5976 37.726 19.1627 37.7281 19.7332C37.7227 20.3044 37.8331 20.8708 38.0527 21.3981C38.2723 21.9254 38.5965 22.4028 39.0057 22.8014C40.2895 24.1977 41.0016 26.0254 41.0008 27.9222C41.0001 29.8189 40.2866 31.6461 39.0017 33.0414C38.8124 33.2779 38.6222 33.5128 38.4456 33.7653C38.2943 33.9803 38.0935 34.1557 37.8602 34.2767C37.6268 34.3977 37.3677 34.4607 37.1049 34.4604Z" fill="#FF445F"/>
<path d="M61.6496 34.4604C61.3501 34.4601 61.0564 34.3777 60.8005 34.222C60.5447 34.0663 60.3364 33.8434 60.1985 33.5776C60.0605 33.3118 59.9982 33.0132 60.0182 32.7143C60.0382 32.4155 60.1399 32.1279 60.312 31.8828C60.5293 31.5744 60.7611 31.2836 60.9927 30.9943C61.3982 30.5917 61.72 30.1129 61.9397 29.5855C62.1593 29.0581 62.2725 28.4924 62.2728 27.921C62.273 27.3497 62.1602 26.7839 61.941 26.2563C61.7217 25.7287 61.4003 25.2497 60.9952 24.8467C59.7125 23.4537 59.0003 21.6294 59 19.7358C58.9997 17.8422 59.7113 16.0177 60.9935 14.6243C61.4974 14.0834 61.8818 13.4426 62.1217 12.7434C62.1787 12.5351 62.2763 12.3401 62.409 12.1697C62.5418 11.9992 62.7069 11.8568 62.8949 11.7505C63.083 11.6442 63.2902 11.5762 63.5046 11.5504C63.7191 11.5246 63.9365 11.5415 64.1444 11.6002C64.3523 11.6588 64.5465 11.758 64.7158 11.8921C64.8852 12.0262 65.0263 12.1924 65.1311 12.3813C65.2359 12.5702 65.3022 12.778 65.3263 12.9926C65.3504 13.2073 65.3317 13.4246 65.2714 13.632C64.9215 14.755 64.3346 15.7899 63.5503 16.6666C63.1438 17.0669 62.8214 17.5443 62.602 18.0709C62.3826 18.5976 62.2707 19.1627 62.2728 19.7332C62.2674 20.3044 62.3778 20.8708 62.5974 21.3981C62.817 21.9254 63.1412 22.4028 63.5504 22.8014C64.8341 24.1977 65.5463 26.0254 65.5455 27.9222C65.5448 29.8189 64.8312 31.6461 63.5464 33.0414C63.357 33.2779 63.1669 33.5128 62.9903 33.7653C62.839 33.9803 62.6382 34.1557 62.4049 34.2767C62.1715 34.3977 61.9124 34.4607 61.6496 34.4604Z" fill="#FF445F"/>
<path d="M48.5585 34.4604C48.259 34.4601 47.9653 34.3777 47.7095 34.222C47.4536 34.0663 47.2454 33.8434 47.1074 33.5776C46.9695 33.3118 46.9071 33.0132 46.9271 32.7143C46.9472 32.4155 47.0488 32.1279 47.221 31.8828C47.4383 31.5744 47.67 31.2836 47.9017 30.9943C48.3071 30.5917 48.6289 30.1129 48.8486 29.5855C49.0683 29.0581 49.1815 28.4924 49.1817 27.921C49.1819 27.3497 49.0692 26.7839 48.8499 26.2563C48.6306 25.7287 48.3092 25.2497 47.9041 24.8467C46.6214 23.4537 45.9092 21.6294 45.9089 19.7358C45.9086 17.8422 46.6202 16.0177 47.9025 14.6243C48.4063 14.0834 48.7907 13.4426 49.0306 12.7434C49.0876 12.5351 49.1853 12.3401 49.318 12.1697C49.4507 11.9992 49.6158 11.8568 49.8039 11.7505C49.9919 11.6442 50.1991 11.5762 50.4136 11.5504C50.628 11.5246 50.8455 11.5415 51.0533 11.6002C51.2612 11.6588 51.4554 11.758 51.6248 11.8921C51.7941 12.0262 51.9353 12.1924 52.04 12.3813C52.1448 12.5702 52.2111 12.778 52.2352 12.9926C52.2593 13.2073 52.2406 13.4246 52.1803 13.632C51.8304 14.755 51.2435 15.7899 50.4593 16.6666C50.0528 17.0669 49.7304 17.5443 49.511 18.0709C49.2916 18.5976 49.1796 19.1627 49.1817 19.7332C49.1763 20.3044 49.2867 20.8708 49.5063 21.3981C49.7259 21.9254 50.0501 22.4028 50.4593 22.8014C51.7431 24.1977 52.4552 26.0254 52.4545 27.9222C52.4537 29.8189 51.7402 31.6461 50.4553 33.0414C50.266 33.2779 50.0758 33.5128 49.8992 33.7653C49.748 33.9803 49.5472 34.1557 49.3138 34.2767C49.0804 34.3977 48.8214 34.4607 48.5585 34.4604Z" fill="#FF445F"/>
<path d="M45.0917 73.7316C44.8768 73.7317 44.664 73.6894 44.4654 73.6072C44.2669 73.525 44.0864 73.4044 43.9345 73.2525C43.7825 73.1005 43.662 72.9201 43.5798 72.7215C43.4976 72.523 43.4553 72.3102 43.4553 72.0952V49.1862C43.4553 48.7522 43.6277 48.336 43.9346 48.0291C44.2415 47.7222 44.6577 47.5498 45.0917 47.5498C45.5257 47.5498 45.9419 47.7222 46.2488 48.0291C46.5556 48.336 46.728 48.7522 46.728 49.1862V72.0952C46.7281 72.3102 46.6858 72.523 46.6036 72.7215C46.5214 72.9201 46.4009 73.1005 46.2489 73.2525C46.0969 73.4044 45.9165 73.525 45.718 73.6072C45.5194 73.6894 45.3066 73.7317 45.0917 73.7316Z" fill="#FF445F"/>
<path d="M54.9096 73.7316C54.6947 73.7317 54.4818 73.6894 54.2833 73.6072C54.0847 73.525 53.9043 73.4044 53.7523 73.2525C53.6004 73.1005 53.4799 72.9201 53.3976 72.7215C53.3154 72.523 53.2731 72.3102 53.2732 72.0952V49.1862C53.2732 48.7522 53.4456 48.336 53.7525 48.0291C54.0593 47.7222 54.4756 47.5498 54.9096 47.5498C55.3435 47.5498 55.7598 47.7222 56.0666 48.0291C56.3735 48.336 56.5459 48.7522 56.5459 49.1862V72.0952C56.546 72.3102 56.5037 72.523 56.4215 72.7215C56.3393 72.9201 56.2187 73.1005 56.0668 73.2525C55.9148 73.4044 55.7344 73.525 55.5358 73.6072C55.3373 73.6894 55.1245 73.7317 54.9096 73.7316Z" fill="#FF445F"/>
<path d="M35.2721 73.7316C35.0572 73.7317 34.8444 73.6894 34.6458 73.6072C34.4473 73.525 34.2669 73.4044 34.1149 73.2525C33.9629 73.1005 33.8424 72.9201 33.7602 72.7215C33.678 72.523 33.6357 72.3102 33.6357 72.0952V49.1862C33.6357 48.7522 33.8081 48.336 34.115 48.0291C34.4219 47.7222 34.8381 47.5498 35.2721 47.5498C35.7061 47.5498 36.1223 47.7222 36.4292 48.0291C36.7361 48.336 36.9085 48.7522 36.9085 49.1862V72.0952C36.9085 72.3102 36.8662 72.523 36.784 72.7215C36.7018 72.9201 36.5813 73.1005 36.4293 73.2525C36.2774 73.4044 36.0969 73.525 35.8984 73.6072C35.6998 73.6894 35.487 73.7317 35.2721 73.7316Z" fill="#FF445F"/>
<path d="M25.4542 73.7316C25.2393 73.7317 25.0265 73.6894 24.828 73.6072C24.6294 73.525 24.449 73.4044 24.297 73.2525C24.1451 73.1005 24.0245 72.9201 23.9423 72.7215C23.8601 72.523 23.8178 72.3102 23.8179 72.0952V49.1862C23.8179 48.7522 23.9903 48.336 24.2971 48.0291C24.604 47.7222 25.0202 47.5498 25.4542 47.5498C25.8882 47.5498 26.3044 47.7222 26.6113 48.0291C26.9182 48.336 27.0906 48.7522 27.0906 49.1862V72.0952C27.0907 72.3102 27.0484 72.523 26.9661 72.7215C26.8839 72.9201 26.7634 73.1005 26.6114 73.2525C26.4595 73.4044 26.2791 73.525 26.0805 73.6072C25.882 73.6894 25.6691 73.7317 25.4542 73.7316Z" fill="#FF445F"/>
<path d="M64.7274 73.7316C64.5125 73.7317 64.2997 73.6894 64.1012 73.6072C63.9026 73.525 63.7222 73.4044 63.5702 73.2525C63.4183 73.1005 63.2977 72.9201 63.2155 72.7215C63.1333 72.523 63.091 72.3102 63.0911 72.0952V49.1862C63.0911 48.7522 63.2635 48.336 63.5703 48.0291C63.8772 47.7222 64.2934 47.5498 64.7274 47.5498C65.1614 47.5498 65.5776 47.7222 65.8845 48.0291C66.1914 48.336 66.3638 48.7522 66.3638 49.1862V72.0952C66.3638 72.3102 66.3216 72.523 66.2393 72.7215C66.1571 72.9201 66.0366 73.1005 65.8846 73.2525C65.7327 73.4044 65.5523 73.525 65.3537 73.6072C65.1551 73.6894 64.9423 73.7317 64.7274 73.7316Z" fill="#FF445F"/>
<path d="M74.5453 73.7316C74.3304 73.7317 74.1176 73.6894 73.919 73.6072C73.7205 73.525 73.5401 73.4044 73.3881 73.2525C73.2361 73.1005 73.1156 72.9201 73.0334 72.7215C72.9512 72.523 72.9089 72.3102 72.9089 72.0952V49.1862C72.9089 48.7522 73.0813 48.336 73.3882 48.0291C73.6951 47.7222 74.1113 47.5498 74.5453 47.5498C74.9793 47.5498 75.3955 47.7222 75.7024 48.0291C76.0093 48.336 76.1817 48.7522 76.1817 49.1862V72.0952C76.1817 72.3102 76.1394 72.523 76.0572 72.7215C75.975 72.9201 75.8545 73.1005 75.7025 73.2525C75.5505 73.4044 75.3701 73.525 75.1716 73.6072C74.973 73.6894 74.7602 73.7317 74.5453 73.7316Z" fill="#FF445F"/>
<path d="M23.819 88.4614C22.5175 88.46 21.2696 87.9423 20.3493 87.022C19.429 86.1016 18.9113 84.8538 18.9099 83.5523V78.6432C18.9099 78.4283 18.9521 78.2155 19.0344 78.0169C19.1166 77.8184 19.2371 77.638 19.3891 77.486C19.541 77.334 19.7214 77.2135 19.92 77.1313C20.1186 77.0491 20.3314 77.0068 20.5463 77.0068H27.0917C27.3066 77.0068 27.5195 77.0491 27.718 77.1313C27.9166 77.2135 28.097 77.334 28.2489 77.486C28.4009 77.638 28.5214 77.8184 28.6036 78.0169C28.6859 78.2155 28.7282 78.4283 28.7281 78.6432V83.5523C28.7267 84.8538 28.209 86.1016 27.2887 87.022C26.3684 87.9423 25.1205 88.46 23.819 88.4614ZM22.1826 80.2796V83.5523C22.1826 83.9863 22.355 84.4025 22.6619 84.7094C22.9688 85.0163 23.385 85.1887 23.819 85.1887C24.253 85.1887 24.6692 85.0163 24.9761 84.7094C25.283 84.4025 25.4554 83.9863 25.4554 83.5523V80.2796H22.1826Z" fill="#FF445F"/>
<path d="M76.1823 88.4614C74.8807 88.46 73.6329 87.9423 72.7126 87.022C71.7923 86.1016 71.2746 84.8538 71.2732 83.5523V78.6432C71.2731 78.4283 71.3154 78.2155 71.3976 78.0169C71.4799 77.8184 71.6004 77.638 71.7523 77.486C71.9043 77.334 72.0847 77.2135 72.2833 77.1313C72.4818 77.0491 72.6947 77.0068 72.9096 77.0068H79.455C79.6699 77.0068 79.8827 77.0491 80.0813 77.1313C80.2798 77.2135 80.4603 77.334 80.6122 77.486C80.7642 77.638 80.8847 77.8184 80.9669 78.0169C81.0491 78.2155 81.0914 78.4283 81.0914 78.6432V83.5523C81.09 84.8538 80.5723 86.1016 79.652 87.022C78.7316 87.9423 77.4838 88.46 76.1823 88.4614ZM74.5459 80.2796V83.5523C74.5459 83.9863 74.7183 84.4025 75.0252 84.7094C75.3321 85.0163 75.7483 85.1887 76.1823 85.1887C76.6163 85.1887 77.0325 85.0163 77.3394 84.7094C77.6462 84.4025 77.8186 83.9863 77.8186 83.5523V80.2796H74.5459Z" fill="#FF445F"/>
</g>
<defs>
<clipPath id="clip0_1_163">
<rect width="100" height="100" fill="white"/>
</clipPath>
</defs>
</svg>
