<svg width="100" height="100" viewBox="0 0 100 100" fill="none" xmlns="http://www.w3.org/2000/svg">
<g clip-path="url(#clip0_1_156)">
<path d="M70.25 18V32.75H52.75V18C52.75 17.3096 52.1904 16.75 51.5 16.75C50.8096 16.75 50.25 17.3096 50.25 18V32.75H44.5059C41.5997 32.75 39.25 35.0996 39.25 38.0024V40.9976C39.25 43.4664 40.9539 45.5364 43.25 46.099V56.5C43.25 63.5424 48.9557 69.25 55.9955 69.25H59.6892C55.9563 76.2335 48.6434 80.75 40.5 80.75C28.4878 80.75 18.75 71.0122 18.75 59C18.75 58.3096 18.1904 57.75 17.5 57.75C16.8096 57.75 16.25 58.3096 16.25 59C16.25 72.3929 27.1071 83.25 40.5 83.25C50.0295 83.25 58.5391 77.7021 62.4834 69.25H67.0045C74.0374 69.25 79.75 63.5383 79.75 56.5V46.0994C82.0483 45.5375 83.75 43.468 83.75 40.9976V38.0024C83.75 35.1011 81.3965 32.75 78.4941 32.75H72.75V18C72.75 17.3096 72.1904 16.75 71.5 16.75C70.8096 16.75 70.25 17.3096 70.25 18ZM52.75 39V35.25H70.25V39C70.25 39.6904 70.8096 40.25 71.5 40.25C72.1904 40.25 72.75 39.6904 72.75 39V35.25H78.4941C80.0166 35.25 81.25 36.4827 81.25 38.0024V40.9976C81.25 42.5194 80.0199 43.75 78.4941 43.75H44.5059C42.9834 43.75 41.75 42.5173 41.75 40.9976V38.0024C41.75 36.4806 42.9801 35.25 44.5059 35.25H50.25V39C50.25 39.6904 50.8096 40.25 51.5 40.25C52.1904 40.25 52.75 39.6904 52.75 39ZM45.75 56.5V46.25H77.25V56.5C77.25 62.1576 72.6567 66.75 67.0045 66.75H55.9955C50.3367 66.75 45.75 62.162 45.75 56.5ZM57.25 56C57.25 58.3472 59.1528 60.25 61.5 60.25C63.8472 60.25 65.75 58.3472 65.75 56C65.75 53.6528 63.8472 51.75 61.5 51.75C59.1528 51.75 57.25 53.6528 57.25 56ZM63.25 56C63.25 56.9665 62.4665 57.75 61.5 57.75C60.5335 57.75 59.75 56.9665 59.75 56C59.75 55.0335 60.5335 54.25 61.5 54.25C62.4665 54.25 63.25 55.0335 63.25 56Z" fill="#FF445F" stroke="#FF445F" stroke-width="0.5"/>
</g>
<defs>
<clipPath id="clip0_1_156">
<rect width="100" height="100" fill="white"/>
</clipPath>
</defs>
</svg>
