<svg width="100" height="100" viewBox="0 0 100 100" fill="none" xmlns="http://www.w3.org/2000/svg">
<g clip-path="url(#clip0_1_181)">
<path d="M77.4884 12.5H22.5465C21.2689 12.532 20.0557 13.0681 19.1718 13.9912C18.288 14.9143 17.805 16.1495 17.8285 17.4273V82.5727C17.8049 83.8446 18.283 85.0747 19.1594 85.9968C20.0359 86.919 21.2401 87.459 22.5116 87.5H77.4535C78.7311 87.468 79.9442 86.9319 80.8281 86.0088C81.712 85.0857 82.1949 83.8505 82.1715 82.5727V17.4273C82.1951 16.1554 81.7169 14.9253 80.8405 14.0032C79.9641 13.081 78.7599 12.541 77.4884 12.5ZM21.282 17.4273C21.2554 17.0737 21.3699 16.724 21.6002 16.4544C21.8306 16.1848 22.1582 16.0173 22.5116 15.9884H48.2558V62.2093H21.282V17.4273ZM78.718 82.5727C78.7445 82.9263 78.6301 83.276 78.3998 83.5456C78.1694 83.8152 77.8418 83.9827 77.4884 84.0116H22.5465C22.1931 83.9827 21.8655 83.8152 21.6351 83.5456C21.4047 83.276 21.2903 82.9263 21.3168 82.5727V65.6977H78.718V82.5727ZM78.718 62.2093H51.7442V15.9884H77.4884C77.8418 16.0173 78.1694 16.1848 78.3998 16.4544C78.6301 16.724 78.7445 17.0737 78.718 17.4273V62.2093Z" fill="#FF445F"/>
<path d="M43.8953 31.6855C43.4327 31.6855 42.9891 31.8693 42.662 32.1964C42.3349 32.5235 42.1511 32.9671 42.1511 33.4297V47.3832C42.1511 47.8458 42.3349 48.2895 42.662 48.6166C42.9891 48.9437 43.4327 49.1274 43.8953 49.1274C44.3579 49.1274 44.8015 48.9437 45.1286 48.6166C45.4557 48.2895 45.6395 47.8458 45.6395 47.3832V33.4297C45.6395 32.9671 45.4557 32.5235 45.1286 32.1964C44.8015 31.8693 44.3579 31.6855 43.8953 31.6855Z" fill="#FF445F"/>
<path d="M56.1047 31.6855C55.6421 31.6855 55.1984 31.8693 54.8713 32.1964C54.5442 32.5235 54.3605 32.9671 54.3605 33.4297V47.3832C54.3605 47.8458 54.5442 48.2895 54.8713 48.6166C55.1984 48.9437 55.6421 49.1274 56.1047 49.1274C56.5672 49.1274 57.0109 48.9437 57.338 48.6166C57.6651 48.2895 57.8488 47.8458 57.8488 47.3832V33.4297C57.8488 32.9671 57.6651 32.5235 57.338 32.1964C57.0109 31.8693 56.5672 31.6855 56.1047 31.6855Z" fill="#FF445F"/>
<path d="M75.2907 29.942H62.2093C61.7467 29.942 61.303 30.1258 60.9759 30.4529C60.6488 30.78 60.4651 31.2236 60.4651 31.6862V48.256C60.4651 48.7185 60.6488 49.1622 60.9759 49.4893C61.303 49.8164 61.7467 50.0001 62.2093 50.0001H75.2907C75.7533 50.0001 76.1969 49.8164 76.524 49.4893C76.8511 49.1622 77.0348 48.7185 77.0348 48.256V31.6862C77.0348 31.2236 76.8511 30.78 76.524 30.4529C76.1969 30.1258 75.7533 29.942 75.2907 29.942ZM73.5465 46.5118H63.9535V39.535H73.5465V46.5118ZM73.5465 36.0467H63.9535V33.4304H73.5465V36.0467Z" fill="#FF445F"/>
<path d="M28.1976 71.8028H72.6743C73.1369 71.8028 73.5805 71.6191 73.9076 71.292C74.2347 70.9649 74.4185 70.5212 74.4185 70.0586C74.4185 69.5961 74.2347 69.1524 73.9076 68.8253C73.5805 68.4982 73.1369 68.3145 72.6743 68.3145H28.1976C27.735 68.3145 27.2913 68.4982 26.9642 68.8253C26.6371 69.1524 26.4534 69.5961 26.4534 70.0586C26.4534 70.5212 26.6371 70.9649 26.9642 71.292C27.2913 71.6191 27.735 71.8028 28.1976 71.8028Z" fill="#FF445F"/>
</g>
<defs>
<clipPath id="clip0_1_181">
<rect width="100" height="100" fill="white"/>
</clipPath>
</defs>
</svg>
