<svg width="100" height="101" viewBox="0 0 100 101" fill="none" xmlns="http://www.w3.org/2000/svg">
<path d="M67.0796 17.4185H59.1772C47.7888 17.4185 37.4341 21.901 29.761 29.1846L31.8637 35.7725L39.1342 32.0809L67.0796 17.4185ZM67.0796 17.4185V40.0005H61.1934C49.7526 40.0005 40.4453 49.3077 40.4453 60.7485V68.332H16.4058V60.1895C16.4058 49.0079 20.7268 38.8224 27.7779 31.1934L29.9288 37.9325L29.9289 37.9326C30.0405 38.2815 30.2992 38.5641 30.6373 38.7057L30.6382 38.7061C30.9756 38.8459 31.3583 38.8336 31.6857 38.6666L31.6855 38.6668L31.5723 38.4438L31.6859 38.6665L67.0796 17.4185ZM38.8377 35.035L40.3183 41.5282L40.3183 41.5283C40.4507 42.1082 40.9659 42.5011 41.5364 42.5005M38.8377 35.035L39.1344 32.0808C39.4781 31.906 39.8832 31.8988 40.2317 32.0642C40.5807 32.2276 40.8332 32.543 40.919 32.9173L40.919 32.9176L42.756 40.9727L42.756 40.9728C42.9092 41.6455 42.488 42.3155 41.815 42.4693M38.8377 35.035L39.0676 34.9183L40.562 41.4727L38.8377 35.035ZM38.8377 35.035L38.7804 34.7837L38.8377 35.035ZM41.5364 42.5005C41.5363 42.5005 41.5362 42.5005 41.5361 42.5005V42.2505L41.5364 42.5005ZM41.5364 42.5005C41.6278 42.5005 41.7211 42.4908 41.815 42.4693M41.815 42.4693C41.815 42.4693 41.815 42.4693 41.815 42.4693L41.7593 42.2256L41.815 42.4693ZM89 17.4185C89.6903 17.4185 90.25 16.8588 90.25 16.1685C90.25 15.4781 89.6903 14.9185 89 14.9185H80.708V14.5C80.708 12.1564 78.8016 10.25 76.458 10.25H71.3296C68.986 10.25 67.0796 12.1564 67.0796 14.5V14.9185H59.1772C34.2145 14.9185 13.9058 35.2267 13.9058 60.1895V68.3331C11.6055 68.3833 9.75 70.2699 9.75 72.582V77.7104C9.75 80.0226 11.6055 81.9091 13.9058 81.9594V89.5C13.9058 90.1903 14.4654 90.75 15.1558 90.75C15.8461 90.75 16.4058 90.1903 16.4058 89.5V81.9604H40.4453V89.5C40.4453 90.1903 41.005 90.75 41.6953 90.75C42.3856 90.75 42.9453 90.1903 42.9453 89.5V81.9502C45.1639 81.811 46.9268 79.9639 46.9268 77.7104V72.582C46.9268 70.3286 45.1639 68.4815 42.9453 68.3423V60.7485C42.9453 50.6869 51.1317 42.5005 61.1934 42.5005H67.0796V43.1768C67.0796 45.5204 68.986 47.4268 71.3296 47.4268H76.458C78.8016 47.4268 80.708 45.5204 80.708 43.1768V42.5005H89C89.6903 42.5005 90.25 41.9408 90.25 41.2505C90.25 40.5602 89.6903 40.0005 89 40.0005H80.708V17.4185H89ZM44.4268 72.582V77.7104C44.4268 78.6754 43.6417 79.4604 42.6768 79.4604H14C13.035 79.4604 12.25 78.6754 12.25 77.7104V72.582C12.25 71.6171 13.035 70.832 14 70.832H42.6768C43.6417 70.832 44.4268 71.6171 44.4268 72.582ZM78.208 43.1768C78.208 44.1417 77.423 44.9268 76.458 44.9268H71.3296C70.3646 44.9268 69.5796 44.1417 69.5796 43.1768V14.5C69.5796 13.535 70.3646 12.75 71.3296 12.75H76.458C77.423 12.75 78.208 13.535 78.208 14.5V43.1768Z" fill="#FF445F" stroke="#FF445F" stroke-width="0.5"/>
</svg>
