<svg width="100" height="100" viewBox="0 0 100 100" fill="none" xmlns="http://www.w3.org/2000/svg">
<g clip-path="url(#clip0_1_159)">
<mask id="path-1-outside-1_1_159" maskUnits="userSpaceOnUse" x="5.94885" y="5.58997" width="88" height="89" fill="black">
<rect fill="white" x="5.94885" y="5.58997" width="88" height="89"/>
<path d="M20.1751 7.34247C20.1751 6.92688 20.5111 6.58997 20.9256 6.58997C21.3401 6.58997 21.6761 6.92688 21.6761 7.34247V92.6575C21.6761 93.0731 21.3401 93.41 20.9256 93.41C20.5111 93.41 20.1751 93.0731 20.1751 92.6575V68.9419L20.1561 68.942H8.45853C8.04258 68.942 7.665 68.7719 7.39173 68.498C7.11849 68.2239 6.94885 67.8454 6.94885 67.4283V61.7516C6.94885 61.3346 7.11849 60.956 7.39173 60.682C7.665 60.408 8.04262 60.2379 8.45853 60.2379H20.1561L20.1751 60.2381V54.3519L20.1561 54.352H8.45853C8.04258 54.352 7.665 54.1819 7.39173 53.9079C7.11849 53.6339 6.94885 53.2553 6.94885 52.8383V47.1616C6.94885 46.7446 7.11849 46.366 7.39173 46.092C7.665 45.818 8.04258 45.6479 8.45853 45.6479H20.1561L20.1751 45.6481V39.7619L20.1561 39.762H8.45853C8.04258 39.762 7.665 39.5919 7.39173 39.318C7.11849 39.044 6.94885 38.6653 6.94885 38.2483V32.5717C6.94885 32.1546 7.11849 31.776 7.39173 31.502C7.665 31.2281 8.04258 31.058 8.45853 31.058H20.1561L20.1751 31.0581V7.34247ZM33.8367 34.664C33.8367 33.452 34.164 32.3109 34.7599 31.3264C35.358 30.3382 36.2237 29.5155 37.2974 28.9451C40.3225 27.338 44.9655 28.7873 48.6345 29.9326C48.9386 30.0276 49.2356 30.1203 49.5269 30.2096V22.9494C49.5269 20.449 48.5062 18.1753 46.8617 16.5264C45.2172 14.8775 42.9496 13.8541 40.4558 13.8541C37.9619 13.8541 35.6943 14.8775 34.0498 16.5264C32.4053 18.1753 31.3846 20.449 31.3846 22.9494V79.37C31.3846 81.8705 32.4053 84.1442 34.0498 85.7931C35.6943 87.442 37.9619 88.4654 40.4557 88.4654C42.9496 88.4654 45.2172 87.442 46.8617 85.7931C48.5062 84.1442 49.5269 81.8705 49.5269 79.37V42.7561C44.9994 42.6295 41.0299 42.0293 38.2412 40.7278C35.4838 39.4408 33.8367 37.4869 33.8367 34.664ZM51.0279 30.6475C56.1535 32.0667 61.141 32.7734 66.6569 32.6818C72.3922 32.5865 78.7178 31.6296 86.3796 29.7155C88.9854 29.0645 90.844 29.5191 91.9216 30.4537C92.4082 30.8757 92.7384 31.3956 92.9115 31.9628C93.0831 32.5251 93.0967 33.1269 92.952 33.7192C92.6324 35.0273 91.5404 36.2954 89.6817 36.9369C86.7878 37.9357 78.5422 39.8962 69.2914 41.2689C63.2479 42.1656 56.7596 42.8133 51.0279 42.7809V79.37C51.0279 82.2859 49.8388 84.9362 47.923 86.8572C46.0071 88.7781 43.3639 89.9704 40.4558 89.9704C37.5476 89.9704 34.9044 88.7781 32.9885 86.8572C31.0727 84.9362 29.8835 82.2859 29.8835 79.37V22.9494C29.8835 20.0336 31.0727 17.3833 32.9885 15.4623C34.9044 13.5414 37.5476 12.349 40.4557 12.349C43.3639 12.349 46.0071 13.5414 47.923 15.4623C49.8388 17.3833 51.0279 20.0336 51.0279 22.9494V30.6475ZM36.0381 32.1024C35.586 32.8494 35.3377 33.7248 35.3377 34.664C35.3377 36.8115 36.6603 38.3305 38.8745 39.3639C41.6309 40.6503 45.7037 41.2032 50.3665 41.2748C56.1572 41.3637 62.8449 40.7059 69.0745 39.7815C78.228 38.4233 86.3556 36.4941 89.195 35.5141C90.5254 35.055 91.2909 34.2136 91.4979 33.3665C91.5792 33.0335 91.5735 32.7016 91.4809 32.3979C91.3897 32.0992 91.2103 31.8206 90.9424 31.5883C90.1985 30.9432 88.8076 30.6563 86.7372 31.1735C78.9721 33.1134 72.5394 34.0836 66.6803 34.1809C60.7997 34.2786 55.516 33.4986 50.0653 31.9383C49.505 31.7779 48.8635 31.5777 48.1889 31.3671C44.7824 30.3038 40.4717 28.9581 37.9952 30.2738C37.1624 30.7162 36.4948 31.3478 36.0381 32.1024ZM39.7052 62.2557C39.7052 61.8402 40.0413 61.5032 40.4557 61.5032C40.8702 61.5032 41.2063 61.8402 41.2063 62.2557V66.2846C41.2063 66.7002 40.8702 67.0371 40.4557 67.0371C40.0413 67.0371 39.7052 66.7002 39.7052 66.2846V62.2557ZM40.4557 57.6335C42.2835 57.6335 43.9382 58.3763 45.1361 59.5774C46.3339 60.7784 47.0748 62.4376 47.0748 64.2702C47.0748 66.1028 46.3339 67.7619 45.1361 68.963C45.0861 69.013 45.0353 69.0622 44.9838 69.1107V77.2405C44.9838 78.4899 44.4746 79.6251 43.6543 80.4476C42.834 81.2701 41.7017 81.7807 40.4557 81.7807C39.2097 81.7807 38.0775 81.2701 37.2572 80.4476C36.4368 79.6251 35.9276 78.4899 35.9276 77.2405V69.1107C35.8761 69.0622 35.8254 69.013 35.7754 68.963C34.5776 67.7619 33.8367 66.1028 33.8367 64.2702C33.8367 62.4376 34.5776 60.7784 35.7754 59.5774C36.9733 58.3763 38.628 57.6335 40.4557 57.6335ZM43.4828 70.1736C42.6614 70.598 41.74 70.8549 40.7634 70.8997L40.738 70.9009C40.723 70.9015 40.708 70.9021 40.693 70.9026C40.6737 70.9033 40.6544 70.9039 40.635 70.9045L40.6168 70.9049C40.5938 70.9055 40.5708 70.9059 40.5477 70.9062L40.5374 70.9064C40.5102 70.9067 40.483 70.9069 40.4557 70.9069C40.4285 70.9069 40.4013 70.9067 40.3741 70.9064L40.3638 70.9062C40.3407 70.9059 40.3177 70.9055 40.2947 70.9049L40.2765 70.9045C40.2571 70.9039 40.2378 70.9033 40.2185 70.9026C40.2035 70.9021 40.1885 70.9015 40.1735 70.9009L40.1481 70.8997C39.1715 70.8549 38.2501 70.5979 37.4287 70.1736V77.2405C37.4287 78.0744 37.7694 78.8331 38.3184 79.3835C38.8674 79.934 39.6241 80.2757 40.4557 80.2757C41.2874 80.2757 42.044 79.934 42.593 79.3835C43.142 78.8331 43.4828 78.0744 43.4828 77.2405V70.1736ZM44.0748 60.6415C43.1487 59.7129 41.8691 59.1385 40.4557 59.1385C39.0424 59.1385 37.7628 59.7128 36.8367 60.6415C35.9105 61.5701 35.3377 62.853 35.3377 64.2702C35.3377 65.6873 35.9105 66.9703 36.8367 67.8989C37.7477 68.8124 39.0007 69.383 40.3866 69.4014L40.3918 69.4015C40.4131 69.4018 40.4344 69.4019 40.4557 69.4019C40.4771 69.4019 40.4984 69.4018 40.5197 69.4015L40.5249 69.4014C41.9108 69.383 43.1638 68.8123 44.0748 67.8989C45.0009 66.9703 45.5738 65.6873 45.5738 64.2702C45.5738 62.853 45.0009 61.5701 44.0748 60.6415ZM20.1561 61.743H8.45853C8.45692 61.743 8.45489 61.7442 8.45298 61.7461C8.45108 61.748 8.44987 61.75 8.44987 61.7516V67.4283C8.44987 67.4299 8.45107 67.4319 8.45298 67.4339C8.45489 67.4358 8.45692 67.437 8.45853 67.437H20.1561C20.1577 67.437 20.1598 67.4358 20.1617 67.4339C20.1636 67.4319 20.1648 67.4299 20.1648 67.4283V61.7516C20.1648 61.75 20.1636 61.748 20.1617 61.7461C20.1598 61.7442 20.1577 61.743 20.1561 61.743ZM20.1561 47.1529H8.45853C8.45692 47.1529 8.45489 47.1541 8.45298 47.1561C8.45107 47.158 8.44987 47.16 8.44987 47.1616V52.8383C8.44987 52.8399 8.45107 52.8419 8.45298 52.8439C8.45489 52.8458 8.45692 52.847 8.45853 52.847H20.1561C20.1577 52.847 20.1598 52.8458 20.1617 52.8439C20.1636 52.8419 20.1648 52.8399 20.1648 52.8383V47.1616C20.1648 47.16 20.1636 47.158 20.1617 47.1561C20.1598 47.1542 20.1577 47.1529 20.1561 47.1529ZM20.1561 32.563H8.45853C8.45692 32.563 8.45489 32.5642 8.45298 32.5661C8.45107 32.568 8.44987 32.5701 8.44987 32.5717V38.2483C8.44987 38.2499 8.45108 38.252 8.45298 38.2539C8.45489 38.2558 8.45692 38.257 8.45853 38.257H20.1561C20.1577 38.257 20.1598 38.2558 20.1617 38.2539C20.1636 38.252 20.1648 38.2499 20.1648 38.2483V32.5717C20.1648 32.5701 20.1636 32.568 20.1617 32.5661C20.1598 32.5642 20.1577 32.563 20.1561 32.563Z"/>
</mask>
<path d="M20.1751 7.34247C20.1751 6.92688 20.5111 6.58997 20.9256 6.58997C21.3401 6.58997 21.6761 6.92688 21.6761 7.34247V92.6575C21.6761 93.0731 21.3401 93.41 20.9256 93.41C20.5111 93.41 20.1751 93.0731 20.1751 92.6575V68.9419L20.1561 68.942H8.45853C8.04258 68.942 7.665 68.7719 7.39173 68.498C7.11849 68.2239 6.94885 67.8454 6.94885 67.4283V61.7516C6.94885 61.3346 7.11849 60.956 7.39173 60.682C7.665 60.408 8.04262 60.2379 8.45853 60.2379H20.1561L20.1751 60.2381V54.3519L20.1561 54.352H8.45853C8.04258 54.352 7.665 54.1819 7.39173 53.9079C7.11849 53.6339 6.94885 53.2553 6.94885 52.8383V47.1616C6.94885 46.7446 7.11849 46.366 7.39173 46.092C7.665 45.818 8.04258 45.6479 8.45853 45.6479H20.1561L20.1751 45.6481V39.7619L20.1561 39.762H8.45853C8.04258 39.762 7.665 39.5919 7.39173 39.318C7.11849 39.044 6.94885 38.6653 6.94885 38.2483V32.5717C6.94885 32.1546 7.11849 31.776 7.39173 31.502C7.665 31.2281 8.04258 31.058 8.45853 31.058H20.1561L20.1751 31.0581V7.34247ZM33.8367 34.664C33.8367 33.452 34.164 32.3109 34.7599 31.3264C35.358 30.3382 36.2237 29.5155 37.2974 28.9451C40.3225 27.338 44.9655 28.7873 48.6345 29.9326C48.9386 30.0276 49.2356 30.1203 49.5269 30.2096V22.9494C49.5269 20.449 48.5062 18.1753 46.8617 16.5264C45.2172 14.8775 42.9496 13.8541 40.4558 13.8541C37.9619 13.8541 35.6943 14.8775 34.0498 16.5264C32.4053 18.1753 31.3846 20.449 31.3846 22.9494V79.37C31.3846 81.8705 32.4053 84.1442 34.0498 85.7931C35.6943 87.442 37.9619 88.4654 40.4557 88.4654C42.9496 88.4654 45.2172 87.442 46.8617 85.7931C48.5062 84.1442 49.5269 81.8705 49.5269 79.37V42.7561C44.9994 42.6295 41.0299 42.0293 38.2412 40.7278C35.4838 39.4408 33.8367 37.4869 33.8367 34.664ZM51.0279 30.6475C56.1535 32.0667 61.141 32.7734 66.6569 32.6818C72.3922 32.5865 78.7178 31.6296 86.3796 29.7155C88.9854 29.0645 90.844 29.5191 91.9216 30.4537C92.4082 30.8757 92.7384 31.3956 92.9115 31.9628C93.0831 32.5251 93.0967 33.1269 92.952 33.7192C92.6324 35.0273 91.5404 36.2954 89.6817 36.9369C86.7878 37.9357 78.5422 39.8962 69.2914 41.2689C63.2479 42.1656 56.7596 42.8133 51.0279 42.7809V79.37C51.0279 82.2859 49.8388 84.9362 47.923 86.8572C46.0071 88.7781 43.3639 89.9704 40.4558 89.9704C37.5476 89.9704 34.9044 88.7781 32.9885 86.8572C31.0727 84.9362 29.8835 82.2859 29.8835 79.37V22.9494C29.8835 20.0336 31.0727 17.3833 32.9885 15.4623C34.9044 13.5414 37.5476 12.349 40.4557 12.349C43.3639 12.349 46.0071 13.5414 47.923 15.4623C49.8388 17.3833 51.0279 20.0336 51.0279 22.9494V30.6475ZM36.0381 32.1024C35.586 32.8494 35.3377 33.7248 35.3377 34.664C35.3377 36.8115 36.6603 38.3305 38.8745 39.3639C41.6309 40.6503 45.7037 41.2032 50.3665 41.2748C56.1572 41.3637 62.8449 40.7059 69.0745 39.7815C78.228 38.4233 86.3556 36.4941 89.195 35.5141C90.5254 35.055 91.2909 34.2136 91.4979 33.3665C91.5792 33.0335 91.5735 32.7016 91.4809 32.3979C91.3897 32.0992 91.2103 31.8206 90.9424 31.5883C90.1985 30.9432 88.8076 30.6563 86.7372 31.1735C78.9721 33.1134 72.5394 34.0836 66.6803 34.1809C60.7997 34.2786 55.516 33.4986 50.0653 31.9383C49.505 31.7779 48.8635 31.5777 48.1889 31.3671C44.7824 30.3038 40.4717 28.9581 37.9952 30.2738C37.1624 30.7162 36.4948 31.3478 36.0381 32.1024ZM39.7052 62.2557C39.7052 61.8402 40.0413 61.5032 40.4557 61.5032C40.8702 61.5032 41.2063 61.8402 41.2063 62.2557V66.2846C41.2063 66.7002 40.8702 67.0371 40.4557 67.0371C40.0413 67.0371 39.7052 66.7002 39.7052 66.2846V62.2557ZM40.4557 57.6335C42.2835 57.6335 43.9382 58.3763 45.1361 59.5774C46.3339 60.7784 47.0748 62.4376 47.0748 64.2702C47.0748 66.1028 46.3339 67.7619 45.1361 68.963C45.0861 69.013 45.0353 69.0622 44.9838 69.1107V77.2405C44.9838 78.4899 44.4746 79.6251 43.6543 80.4476C42.834 81.2701 41.7017 81.7807 40.4557 81.7807C39.2097 81.7807 38.0775 81.2701 37.2572 80.4476C36.4368 79.6251 35.9276 78.4899 35.9276 77.2405V69.1107C35.8761 69.0622 35.8254 69.013 35.7754 68.963C34.5776 67.7619 33.8367 66.1028 33.8367 64.2702C33.8367 62.4376 34.5776 60.7784 35.7754 59.5774C36.9733 58.3763 38.628 57.6335 40.4557 57.6335ZM43.4828 70.1736C42.6614 70.598 41.74 70.8549 40.7634 70.8997L40.738 70.9009C40.723 70.9015 40.708 70.9021 40.693 70.9026C40.6737 70.9033 40.6544 70.9039 40.635 70.9045L40.6168 70.9049C40.5938 70.9055 40.5708 70.9059 40.5477 70.9062L40.5374 70.9064C40.5102 70.9067 40.483 70.9069 40.4557 70.9069C40.4285 70.9069 40.4013 70.9067 40.3741 70.9064L40.3638 70.9062C40.3407 70.9059 40.3177 70.9055 40.2947 70.9049L40.2765 70.9045C40.2571 70.9039 40.2378 70.9033 40.2185 70.9026C40.2035 70.9021 40.1885 70.9015 40.1735 70.9009L40.1481 70.8997C39.1715 70.8549 38.2501 70.5979 37.4287 70.1736V77.2405C37.4287 78.0744 37.7694 78.8331 38.3184 79.3835C38.8674 79.934 39.6241 80.2757 40.4557 80.2757C41.2874 80.2757 42.044 79.934 42.593 79.3835C43.142 78.8331 43.4828 78.0744 43.4828 77.2405V70.1736ZM44.0748 60.6415C43.1487 59.7129 41.8691 59.1385 40.4557 59.1385C39.0424 59.1385 37.7628 59.7128 36.8367 60.6415C35.9105 61.5701 35.3377 62.853 35.3377 64.2702C35.3377 65.6873 35.9105 66.9703 36.8367 67.8989C37.7477 68.8124 39.0007 69.383 40.3866 69.4014L40.3918 69.4015C40.4131 69.4018 40.4344 69.4019 40.4557 69.4019C40.4771 69.4019 40.4984 69.4018 40.5197 69.4015L40.5249 69.4014C41.9108 69.383 43.1638 68.8123 44.0748 67.8989C45.0009 66.9703 45.5738 65.6873 45.5738 64.2702C45.5738 62.853 45.0009 61.5701 44.0748 60.6415ZM20.1561 61.743H8.45853C8.45692 61.743 8.45489 61.7442 8.45298 61.7461C8.45108 61.748 8.44987 61.75 8.44987 61.7516V67.4283C8.44987 67.4299 8.45107 67.4319 8.45298 67.4339C8.45489 67.4358 8.45692 67.437 8.45853 67.437H20.1561C20.1577 67.437 20.1598 67.4358 20.1617 67.4339C20.1636 67.4319 20.1648 67.4299 20.1648 67.4283V61.7516C20.1648 61.75 20.1636 61.748 20.1617 61.7461C20.1598 61.7442 20.1577 61.743 20.1561 61.743ZM20.1561 47.1529H8.45853C8.45692 47.1529 8.45489 47.1541 8.45298 47.1561C8.45107 47.158 8.44987 47.16 8.44987 47.1616V52.8383C8.44987 52.8399 8.45107 52.8419 8.45298 52.8439C8.45489 52.8458 8.45692 52.847 8.45853 52.847H20.1561C20.1577 52.847 20.1598 52.8458 20.1617 52.8439C20.1636 52.8419 20.1648 52.8399 20.1648 52.8383V47.1616C20.1648 47.16 20.1636 47.158 20.1617 47.1561C20.1598 47.1542 20.1577 47.1529 20.1561 47.1529ZM20.1561 32.563H8.45853C8.45692 32.563 8.45489 32.5642 8.45298 32.5661C8.45107 32.568 8.44987 32.5701 8.44987 32.5717V38.2483C8.44987 38.2499 8.45108 38.252 8.45298 38.2539C8.45489 38.2558 8.45692 38.257 8.45853 38.257H20.1561C20.1577 38.257 20.1598 38.2558 20.1617 38.2539C20.1636 38.252 20.1648 38.2499 20.1648 38.2483V32.5717C20.1648 32.5701 20.1636 32.568 20.1617 32.5661C20.1598 32.5642 20.1577 32.563 20.1561 32.563Z" fill="#FF445F"/>
<path d="M20.1751 7.34247C20.1751 6.92688 20.5111 6.58997 20.9256 6.58997C21.3401 6.58997 21.6761 6.92688 21.6761 7.34247V92.6575C21.6761 93.0731 21.3401 93.41 20.9256 93.41C20.5111 93.41 20.1751 93.0731 20.1751 92.6575V68.9419L20.1561 68.942H8.45853C8.04258 68.942 7.665 68.7719 7.39173 68.498C7.11849 68.2239 6.94885 67.8454 6.94885 67.4283V61.7516C6.94885 61.3346 7.11849 60.956 7.39173 60.682C7.665 60.408 8.04262 60.2379 8.45853 60.2379H20.1561L20.1751 60.2381V54.3519L20.1561 54.352H8.45853C8.04258 54.352 7.665 54.1819 7.39173 53.9079C7.11849 53.6339 6.94885 53.2553 6.94885 52.8383V47.1616C6.94885 46.7446 7.11849 46.366 7.39173 46.092C7.665 45.818 8.04258 45.6479 8.45853 45.6479H20.1561L20.1751 45.6481V39.7619L20.1561 39.762H8.45853C8.04258 39.762 7.665 39.5919 7.39173 39.318C7.11849 39.044 6.94885 38.6653 6.94885 38.2483V32.5717C6.94885 32.1546 7.11849 31.776 7.39173 31.502C7.665 31.2281 8.04258 31.058 8.45853 31.058H20.1561L20.1751 31.0581V7.34247ZM33.8367 34.664C33.8367 33.452 34.164 32.3109 34.7599 31.3264C35.358 30.3382 36.2237 29.5155 37.2974 28.9451C40.3225 27.338 44.9655 28.7873 48.6345 29.9326C48.9386 30.0276 49.2356 30.1203 49.5269 30.2096V22.9494C49.5269 20.449 48.5062 18.1753 46.8617 16.5264C45.2172 14.8775 42.9496 13.8541 40.4558 13.8541C37.9619 13.8541 35.6943 14.8775 34.0498 16.5264C32.4053 18.1753 31.3846 20.449 31.3846 22.9494V79.37C31.3846 81.8705 32.4053 84.1442 34.0498 85.7931C35.6943 87.442 37.9619 88.4654 40.4557 88.4654C42.9496 88.4654 45.2172 87.442 46.8617 85.7931C48.5062 84.1442 49.5269 81.8705 49.5269 79.37V42.7561C44.9994 42.6295 41.0299 42.0293 38.2412 40.7278C35.4838 39.4408 33.8367 37.4869 33.8367 34.664ZM51.0279 30.6475C56.1535 32.0667 61.141 32.7734 66.6569 32.6818C72.3922 32.5865 78.7178 31.6296 86.3796 29.7155C88.9854 29.0645 90.844 29.5191 91.9216 30.4537C92.4082 30.8757 92.7384 31.3956 92.9115 31.9628C93.0831 32.5251 93.0967 33.1269 92.952 33.7192C92.6324 35.0273 91.5404 36.2954 89.6817 36.9369C86.7878 37.9357 78.5422 39.8962 69.2914 41.2689C63.2479 42.1656 56.7596 42.8133 51.0279 42.7809V79.37C51.0279 82.2859 49.8388 84.9362 47.923 86.8572C46.0071 88.7781 43.3639 89.9704 40.4558 89.9704C37.5476 89.9704 34.9044 88.7781 32.9885 86.8572C31.0727 84.9362 29.8835 82.2859 29.8835 79.37V22.9494C29.8835 20.0336 31.0727 17.3833 32.9885 15.4623C34.9044 13.5414 37.5476 12.349 40.4557 12.349C43.3639 12.349 46.0071 13.5414 47.923 15.4623C49.8388 17.3833 51.0279 20.0336 51.0279 22.9494V30.6475ZM36.0381 32.1024C35.586 32.8494 35.3377 33.7248 35.3377 34.664C35.3377 36.8115 36.6603 38.3305 38.8745 39.3639C41.6309 40.6503 45.7037 41.2032 50.3665 41.2748C56.1572 41.3637 62.8449 40.7059 69.0745 39.7815C78.228 38.4233 86.3556 36.4941 89.195 35.5141C90.5254 35.055 91.2909 34.2136 91.4979 33.3665C91.5792 33.0335 91.5735 32.7016 91.4809 32.3979C91.3897 32.0992 91.2103 31.8206 90.9424 31.5883C90.1985 30.9432 88.8076 30.6563 86.7372 31.1735C78.9721 33.1134 72.5394 34.0836 66.6803 34.1809C60.7997 34.2786 55.516 33.4986 50.0653 31.9383C49.505 31.7779 48.8635 31.5777 48.1889 31.3671C44.7824 30.3038 40.4717 28.9581 37.9952 30.2738C37.1624 30.7162 36.4948 31.3478 36.0381 32.1024ZM39.7052 62.2557C39.7052 61.8402 40.0413 61.5032 40.4557 61.5032C40.8702 61.5032 41.2063 61.8402 41.2063 62.2557V66.2846C41.2063 66.7002 40.8702 67.0371 40.4557 67.0371C40.0413 67.0371 39.7052 66.7002 39.7052 66.2846V62.2557ZM40.4557 57.6335C42.2835 57.6335 43.9382 58.3763 45.1361 59.5774C46.3339 60.7784 47.0748 62.4376 47.0748 64.2702C47.0748 66.1028 46.3339 67.7619 45.1361 68.963C45.0861 69.013 45.0353 69.0622 44.9838 69.1107V77.2405C44.9838 78.4899 44.4746 79.6251 43.6543 80.4476C42.834 81.2701 41.7017 81.7807 40.4557 81.7807C39.2097 81.7807 38.0775 81.2701 37.2572 80.4476C36.4368 79.6251 35.9276 78.4899 35.9276 77.2405V69.1107C35.8761 69.0622 35.8254 69.013 35.7754 68.963C34.5776 67.7619 33.8367 66.1028 33.8367 64.2702C33.8367 62.4376 34.5776 60.7784 35.7754 59.5774C36.9733 58.3763 38.628 57.6335 40.4557 57.6335ZM43.4828 70.1736C42.6614 70.598 41.74 70.8549 40.7634 70.8997L40.738 70.9009C40.723 70.9015 40.708 70.9021 40.693 70.9026C40.6737 70.9033 40.6544 70.9039 40.635 70.9045L40.6168 70.9049C40.5938 70.9055 40.5708 70.9059 40.5477 70.9062L40.5374 70.9064C40.5102 70.9067 40.483 70.9069 40.4557 70.9069C40.4285 70.9069 40.4013 70.9067 40.3741 70.9064L40.3638 70.9062C40.3407 70.9059 40.3177 70.9055 40.2947 70.9049L40.2765 70.9045C40.2571 70.9039 40.2378 70.9033 40.2185 70.9026C40.2035 70.9021 40.1885 70.9015 40.1735 70.9009L40.1481 70.8997C39.1715 70.8549 38.2501 70.5979 37.4287 70.1736V77.2405C37.4287 78.0744 37.7694 78.8331 38.3184 79.3835C38.8674 79.934 39.6241 80.2757 40.4557 80.2757C41.2874 80.2757 42.044 79.934 42.593 79.3835C43.142 78.8331 43.4828 78.0744 43.4828 77.2405V70.1736ZM44.0748 60.6415C43.1487 59.7129 41.8691 59.1385 40.4557 59.1385C39.0424 59.1385 37.7628 59.7128 36.8367 60.6415C35.9105 61.5701 35.3377 62.853 35.3377 64.2702C35.3377 65.6873 35.9105 66.9703 36.8367 67.8989C37.7477 68.8124 39.0007 69.383 40.3866 69.4014L40.3918 69.4015C40.4131 69.4018 40.4344 69.4019 40.4557 69.4019C40.4771 69.4019 40.4984 69.4018 40.5197 69.4015L40.5249 69.4014C41.9108 69.383 43.1638 68.8123 44.0748 67.8989C45.0009 66.9703 45.5738 65.6873 45.5738 64.2702C45.5738 62.853 45.0009 61.5701 44.0748 60.6415ZM20.1561 61.743H8.45853C8.45692 61.743 8.45489 61.7442 8.45298 61.7461C8.45108 61.748 8.44987 61.75 8.44987 61.7516V67.4283C8.44987 67.4299 8.45107 67.4319 8.45298 67.4339C8.45489 67.4358 8.45692 67.437 8.45853 67.437H20.1561C20.1577 67.437 20.1598 67.4358 20.1617 67.4339C20.1636 67.4319 20.1648 67.4299 20.1648 67.4283V61.7516C20.1648 61.75 20.1636 61.748 20.1617 61.7461C20.1598 61.7442 20.1577 61.743 20.1561 61.743ZM20.1561 47.1529H8.45853C8.45692 47.1529 8.45489 47.1541 8.45298 47.1561C8.45107 47.158 8.44987 47.16 8.44987 47.1616V52.8383C8.44987 52.8399 8.45107 52.8419 8.45298 52.8439C8.45489 52.8458 8.45692 52.847 8.45853 52.847H20.1561C20.1577 52.847 20.1598 52.8458 20.1617 52.8439C20.1636 52.8419 20.1648 52.8399 20.1648 52.8383V47.1616C20.1648 47.16 20.1636 47.158 20.1617 47.1561C20.1598 47.1542 20.1577 47.1529 20.1561 47.1529ZM20.1561 32.563H8.45853C8.45692 32.563 8.45489 32.5642 8.45298 32.5661C8.45107 32.568 8.44987 32.5701 8.44987 32.5717V38.2483C8.44987 38.2499 8.45108 38.252 8.45298 38.2539C8.45489 38.2558 8.45692 38.257 8.45853 38.257H20.1561C20.1577 38.257 20.1598 38.2558 20.1617 38.2539C20.1636 38.252 20.1648 38.2499 20.1648 38.2483V32.5717C20.1648 32.5701 20.1636 32.568 20.1617 32.5661C20.1598 32.5642 20.1577 32.563 20.1561 32.563Z" stroke="#FF445F" stroke-width="1.2" mask="url(#path-1-outside-1_1_159)"/>
</g>
<defs>
<clipPath id="clip0_1_159">
<rect width="100" height="100" fill="white"/>
</clipPath>
</defs>
</svg>
