<svg width="100" height="100" viewBox="0 0 100 100" fill="none" xmlns="http://www.w3.org/2000/svg">
<g clip-path="url(#clip0_1_178)">
<path d="M45.1841 18.4836H32.6797C32.0728 18.4836 31.5259 18.8494 31.2939 19.4099C31.0615 19.9705 31.1904 20.616 31.6196 21.0447L45.124 34.5364C45.4106 34.823 45.7944 34.9753 46.1846 34.9753C46.3779 34.9753 46.5728 34.9377 46.7583 34.8611C47.3188 34.6287 47.6841 34.0818 47.6841 33.4753V20.9836C47.6841 19.6052 46.5625 18.4836 45.1841 18.4836ZM44.6841 29.8562L36.3032 21.4836H44.6841V29.8562ZM46.8911 39.9426C46.4028 39.6819 45.8115 39.7107 45.3506 40.0183L42.3306 42.0359L39.564 38.7224C39.3789 38.5012 39.1343 38.3376 38.8589 38.2517L34.1543 36.7859C34.3813 34.8953 34.6484 32.9944 34.7959 32.4001C34.8911 32.2346 34.9556 32.0505 34.9819 31.8567C35.1265 30.7981 35.1416 30.6833 28.459 26.1868L27.9888 19.8723C27.9302 19.0891 27.2778 18.4836 26.4927 18.4836H6.5C5.12158 18.4836 4 19.6052 4 20.9836V79.0164C4 80.3953 5.12158 81.5164 6.5 81.5164H45.1841C46.5625 81.5164 47.6841 80.3953 47.6841 79.0164V41.2654C47.6841 40.7122 47.3794 40.2034 46.8911 39.9426ZM44.6841 78.5164H7V21.4836H25.1001L25.521 27.1365C25.5552 27.5955 25.7983 28.0134 26.1807 28.2703C28.3174 29.7058 30.6709 31.3328 31.7783 32.1555C31.562 33.2073 31.3394 34.9016 31.0303 37.6824C30.9507 38.3962 31.3887 39.0662 32.0747 39.28L37.5444 40.9846L40.8916 44.9934C41.3823 45.5813 42.2368 45.7053 42.8765 45.2791L44.6841 44.0715V78.5164ZM93.5 19.3977H56.0879C54.709 19.3977 53.5879 20.5193 53.5879 21.8977V79.0164C53.5879 80.3953 54.709 81.5164 56.0879 81.5164H93.5C94.8789 81.5164 96 80.3953 96 79.0164V21.8977C96 20.5193 94.8789 19.3977 93.5 19.3977ZM93 78.5164H56.5879V22.3977H93V78.5164ZM59.8926 30.8835C59.3066 30.2981 59.3066 29.3484 59.8926 28.7625L62.5352 26.1194C63.1211 25.5334 64.0703 25.5334 64.6562 26.1194C65.2422 26.7048 65.2422 27.6545 64.6562 28.2405L62.0137 30.8835C61.7207 31.1765 61.3369 31.323 60.9531 31.323C60.5693 31.323 60.1855 31.1765 59.8926 30.8835ZM60.7139 35.3274L68.8369 27.2043C69.4229 26.6184 70.3721 26.6184 70.958 27.2043C71.5439 27.7898 71.5439 28.74 70.958 29.3254L62.835 37.4485C62.542 37.7415 62.1582 37.8879 61.7744 37.8879C61.3906 37.8879 61.0068 37.7415 60.7139 37.4485C60.1279 36.863 60.1279 35.9128 60.7139 35.3274ZM78.6299 68.2302C78.0439 67.6453 78.0439 66.6951 78.6299 66.1091L81.2725 63.4656C81.8584 62.8796 82.8076 62.8796 83.3936 63.4656C83.9795 64.0505 83.9795 65.0007 83.3936 65.5867L80.751 68.2302C80.458 68.5232 80.0742 68.6697 79.6904 68.6697C79.3066 68.6697 78.9229 68.5232 78.6299 68.2302ZM79.4512 72.6736L87.5742 64.5505C88.1602 63.9646 89.1094 63.9646 89.6953 64.5505C90.2812 65.1365 90.2812 66.0857 89.6953 66.6716L81.5723 74.7947C81.2793 75.0876 80.8955 75.2341 80.5117 75.2341C80.1279 75.2341 79.7441 75.0876 79.4512 74.7947C78.8652 74.2087 78.8652 73.2595 79.4512 72.6736Z" fill="#FF445F"/>
</g>
<defs>
<clipPath id="clip0_1_178">
<rect width="100" height="100" fill="white"/>
</clipPath>
</defs>
</svg>
